<?xml version="1.0" encoding="UTF-8"?>
<svg width="128px" height="128px" version="1.1" viewBox="0 0 16 16" xmlns="http://www.w3.org/2000/svg" fill="#4c4c4c" fill-opacity="context-fill-opacity">
<path d="M7 14.747a1 1 0 0 1 -1.9087 -0.5972a16 16 0 0 1 2.2857 -4.5715a1 1 0 0 1 1.6230 1.1687a14 14 0 0 0 -2 4" />
<path d="M13.5 14.747a1 1 0 0 0 1.9087 -0.5972a16 16 0 0 0 -2.2857 -4.5715a1 1 0 0 0 -1.6230 1.1687a14 14 0 0 1 2 4" />
<path d="M2.9087 14.747a1 1 0 0 1 -1.9087 -0.5972a16 16 0 0 1 2.2857 -4.5715a1 1 0 0 1 1.6230 1.1687a14 14 0 0 0 -2 4" />
<path d="M10.5 1a4 4 0 0 1 0 8a4 4 0 0 1 0 -8m0 2a2 2 0 0 0 0 4a2 2 0 0 0 0 -4" />
<path d="M5.9087 1a4 4 0 0 0 0 8a1 1 0 0 0 0 -2a2 2 0 0 1 0 -4a1 1 0 0 0 0 -2" />
</svg>
